Justin Bieber - Boyfriend HD 1080p 2012



Video
ID                               : 1
Format                           : AVC
Format/Info                      : Advanced Video Codec
Format profile                   : High@L4.0
Format settings, CABAC           : Yes
Format settings, ReFrames        : 1 frame
Codec ID                         : avc1
Codec ID/Info                    : Advanced Video Coding
Duration                         : 3mn 30s
Bit rate                         : 4 543 Kbps
Maximum bit rate                 : 8 185 Kbps
Width                            : 1 920 pixels
Height                           : 1 080 pixels
Display aspect ratio             : 16:9
Frame rate mode                  : Constant
Frame rate                       : 23.976 fps
Color space                      : YUV
Chroma subsampling               : 4:2:0
Bit depth                        : 8 bits
Scan type                        : Progressive
Bits/(Pixel*Frame)               : 0.091
Stream size                      : 114 MiB (97%)

Audio
ID                               : 2
Format                           : AAC
Format/Info                      : Advanced Audio Codec
Format version                   : Version 4
Format profile                   : LC
Format settings, SBR             : No
Codec ID                         : 40
Duration                         : 3mn 30s
Bit rate mode                    : Variable
Bit rate                         : 144 Kbps
Maximum bit rate                 : 222 Kbps
Channel(s)                       : 2 channels
Channel positions                : Front: L R
Sampling rate                    : 44.1 KHz
Stream size                      : 3.67 MiB (3%)


Screens:
 
http://www.shotpix.com/images/49792446079957569893.jpg 
http://www.shotpix.com/images/16357858196058346344.jpg 
http://www.shotpix.com/images/12297781148483628476.jpg 
http://www.shotpix.com/images/94063511496446675713.jpg 
http://www.shotpix.com/images/24118450805313917529.jpg



